# Blender v2.76 (sub 0) OBJ File: 'tree3.blend'
# www.blender.org
mtllib tree3.mtl
o Cylinder
v 0.008642 -0.340512 -1.404085
v 0.078624 6.945163 -0.647187
v 0.232264 -0.332349 -0.372627
v 1.373829 -0.384818 0.033781
v 0.310333 -0.368016 0.390345
v -0.035956 -0.412956 0.522512
v -1.256823 -0.712599 0.892458
v -0.638168 -0.453681 -0.007685
v -0.273145 -0.353027 -0.447736
v -0.000000 4.157640 -0.179972
v 0.127259 4.157640 -0.127259
v 0.179972 4.157640 0.000000
v 0.127259 4.157640 0.127259
v -0.000000 4.157640 0.179972
v -0.127259 4.157640 0.127259
v -0.179972 4.157640 -0.000000
v -0.127259 4.157640 -0.127259
v 0.150852 5.364419 -0.241928
v 0.238101 5.364419 -0.205788
v 0.274241 5.364419 -0.118539
v 0.238101 5.364419 -0.031289
v 0.150852 5.364419 0.004850
v 0.063603 5.364419 -0.031290
v 0.027463 5.364419 -0.118539
v 0.063603 5.364419 -0.205788
v 0.215931 6.154791 -0.297556
v 0.250324 6.154791 -0.283310
v 0.264570 6.154791 -0.248917
v 0.250324 6.154791 -0.214524
v 0.215931 6.154791 -0.200278
v 0.181538 6.154791 -0.214524
v 0.167292 6.154791 -0.248917
v 0.181538 6.154791 -0.283310
v 0.222271 6.549977 -0.422201
v 0.235698 6.549977 -0.416639
v 0.241260 6.549977 -0.403212
v 0.235698 6.549977 -0.389785
v 0.222271 6.549977 -0.384223
v 0.208844 6.549977 -0.389785
v 0.203282 6.549977 -0.403212
v 0.208844 6.549977 -0.416639
v 0.451459 5.053264 1.040415
v 0.382253 5.058723 1.063998
v -0.044938 4.542574 -0.051547
v 1.195744 5.601290 2.130864
v 0.045731 4.535483 -0.082102
v 0.114497 4.468895 -0.075611
v 0.121078 4.381817 -0.035877
v 0.061618 4.325257 0.013825
v -0.029051 4.332348 0.044380
v -0.097817 4.398935 0.037889
v -0.104398 4.486013 -0.001845
v 0.503729 5.002011 1.044493
v 0.508443 4.934991 1.073844
v 0.462840 4.891460 1.111274
v 0.393633 4.896920 1.134856
v 0.341364 4.948173 1.130778
v 0.336650 5.015193 1.101427
v 0.781432 5.240100 1.722723
v 0.782851 5.219925 1.731558
v 0.795160 5.253204 1.711456
v 0.798586 5.204497 1.732786
v 0.819418 5.202854 1.725687
v 0.833146 5.215957 1.714420
v 0.831727 5.236132 1.705585
v 0.815993 5.251560 1.704357
v 1.017456 5.312413 -0.128088
v 1.017702 5.307526 -0.076669
v 0.149042 5.392022 -0.040706
v 1.845310 5.510005 -0.216709
v 0.148571 5.401388 -0.139256
v 0.274467 4.845318 0.760517
v 0.141323 5.303099 -0.148563
v 0.109285 5.117919 1.347930
v 0.141794 5.293732 -0.050013
v 0.147712 5.120211 1.358940
v 1.013674 5.261130 -0.132944
v 1.013920 5.256243 -0.081525
v 1.564469 5.374749 -0.178587
v 1.564370 5.376705 -0.199175
v 1.565983 5.395282 -0.176642
v 1.565885 5.397239 -0.197230
v 0.037277 4.801832 -0.138174
v 0.348573 4.849736 0.781748
v 0.103827 5.349438 -1.841910
v 0.343208 4.780228 0.814940
v 0.080270 4.862370 -0.137261
v 0.269102 4.775809 0.793708
v 0.144930 5.084167 1.376151
v 0.106503 5.081875 1.365142
v -0.079270 5.359128 1.692440
v 0.139603 4.820466 -0.152679
v 0.014128 4.904177 -0.803299
v -0.025382 4.932081 -0.793032
v 0.096610 4.759927 -0.153593
v -0.054012 4.891769 -0.795534
v -0.014502 4.863864 -0.805802
v 0.082177 5.068367 -1.493380
v 0.031333 5.059108 -1.486172
v 0.060814 5.038287 -1.493834
v 0.052695 5.089189 -1.485719
v 0.195785 6.036623 -0.265705
v 0.259130 6.379250 -0.015878
v 0.247609 6.015749 -0.242932
v 0.217620 5.992430 -0.196062
v 0.165796 6.013304 -0.218834
v 0.143186 1.208436 -0.134727
v 0.250032 1.266863 0.037192
v 0.148375 1.312236 0.195511
v 0.004638 1.107683 0.189053
v -0.133366 1.581352 0.131513
v -0.179390 1.239962 0.007669
v -0.142888 1.204722 -0.157238
v 0.004466 1.011805 -0.297205
v 0.176655 -0.061422 -0.300681
v 0.644593 0.095581 -0.035633
v 0.212992 -0.034149 0.253158
v -0.028715 0.019866 0.472443
v -0.611272 -0.106719 0.386259
v -0.348062 0.248488 -0.015773
v -0.123420 0.053157 -0.271593
v 0.012088 -0.070440 -1.035242
v 0.426150 -0.319819 1.363198
v 0.346940 -0.319819 1.363198
v 0.096636 2.002403 -0.736408
v 0.027954 2.003363 -0.741240
v 1.485998 5.420825 -0.044702
v 2.103562 5.581668 -0.010335
v 1.509759 5.399414 -0.371482
v 2.127323 5.560256 -0.337115
v 0.365846 5.297980 -1.922686
v -0.174736 5.342217 -1.892901
v 0.365846 5.012435 -1.276276
v -0.185125 5.012434 -1.276276
v 1.240818 5.957317 2.460538
v 1.466980 5.664696 2.254894
v 0.798768 5.424134 1.884414
v 1.024930 5.131512 1.678771
v 0.365846 5.012434 -1.276276
v -0.174736 5.342216 -1.892901
v -0.185125 5.012434 -1.276276
v 0.365846 5.297979 -1.922686
v 1.485998 5.420825 -0.044702
v 2.103562 5.581668 -0.010335
v 1.509759 5.399414 -0.371482
v 2.127323 5.560256 -0.337115
v 1.485998 5.420825 -0.044702
v 2.103562 5.581668 -0.010335
v 1.509759 5.399414 -0.371482
v 2.127323 5.560256 -0.337115
v 1.485998 5.420825 -0.044702
v 2.103562 5.581668 -0.010335
v 1.509759 5.399414 -0.371482
v 2.127323 5.560256 -0.337115
v 1.485998 5.420825 -0.044702
v 2.103562 5.581668 -0.010335
v 1.509759 5.399414 -0.371482
v 2.127323 5.560256 -0.337115
v 1.485998 5.420825 -0.044702
v 2.103562 5.581668 -0.010335
v 1.509759 5.399414 -0.371482
v 2.127323 5.560256 -0.337115
v 1.485998 5.420825 -0.044702
v 2.103562 5.581668 -0.010335
v 1.509759 5.399414 -0.371482
v 2.127323 5.560256 -0.337115
v 1.485998 5.420825 -0.044702
v 2.103562 5.581668 -0.010335
v 1.509759 5.399414 -0.371482
v 2.127323 5.560256 -0.337115
v 1.485998 5.420825 -0.044702
v 2.103562 5.581668 -0.010335
v 1.509759 5.399414 -0.371482
v 2.127323 5.560256 -0.337115
v 1.485998 5.420825 -0.044702
v 2.103562 5.581668 -0.010335
v 1.509759 5.399414 -0.371482
v 2.127323 5.560256 -0.337115
v 1.240818 5.957317 2.460538
v 1.466980 5.664696 2.254894
v 0.798768 5.424134 1.884414
v 1.024930 5.131512 1.678771
v 0.462840 4.891460 1.111274
v 0.393633 4.896920 1.134856
v 0.426150 -0.319819 1.363198
v 0.346940 -0.319819 1.363198
v 0.462840 4.891460 1.111274
v 0.393633 4.896920 1.134856
v 0.426150 -0.319819 1.363198
v 0.346940 -0.319819 1.363198
v 0.462840 4.891460 1.111274
v 0.393633 4.896920 1.134856
v 0.426150 -0.319819 1.363198
v 0.346940 -0.319819 1.363198
v -0.014502 4.863864 -0.805802
v -0.054012 4.891769 -0.795534
v -0.054012 4.891769 -0.795534
v -0.054012 4.891769 -0.795534
v -0.014502 4.863864 -0.805802
v -0.014502 4.863864 -0.805802
v -0.054012 4.891769 -0.795534
v -0.014502 4.863864 -0.805802
v 0.096636 2.002403 -0.736408
v 0.027954 2.003363 -0.741240
v 0.462840 4.891460 1.111274
v 0.393633 4.896920 1.134856
v 0.426150 -0.319819 1.363198
v 0.346940 -0.319819 1.363198
vt 0.273805 0.114108
vt 0.299606 0.289927
vt 0.284845 0.297495
vt 0.254577 0.117387
vt 0.342867 0.351112
vt 0.331810 0.165940
vt 0.349223 0.165837
vt 0.368709 0.362396
vt 0.289336 0.122242
vt 0.315408 0.287535
vt 0.306920 0.103428
vt 0.331810 0.290326
vt 0.080668 0.383463
vt 0.108705 0.210286
vt 0.124513 0.210667
vt 0.095550 0.396483
vt 0.061509 0.385095
vt 0.093095 0.206928
vt 0.047168 0.381222
vt 0.077961 0.201939
vt 0.367086 0.162930
vt 0.381758 0.347343
vt 0.306940 0.369474
vt 0.296655 0.376584
vt 0.355857 0.088703
vt 0.367897 0.088038
vt 0.318051 0.367511
vt 0.328854 0.371669
vt 0.093838 0.133917
vt 0.104354 0.133438
vt 0.083152 0.130972
vt 0.072437 0.127454
vt 0.380042 0.086639
vt 0.305050 0.427289
vt 0.300625 0.429048
vt 0.371487 0.038379
vt 0.376264 0.038127
vt 0.309431 0.427011
vt 0.313318 0.427110
vt 0.078233 0.079274
vt 0.082356 0.079272
vt 0.074032 0.078518
vt 0.069775 0.076913
vt 0.381021 0.037565
vt 0.289990 0.457118
vt 0.288604 0.457600
vt 0.378036 0.014237
vt 0.380080 0.014116
vt 0.292042 0.456805
vt 0.342260 0.430071
vt 0.334865 0.403518
vt 0.336678 0.402660
vt 0.346744 0.427164
vt 0.337095 0.428855
vt 0.332912 0.403320
vt 0.059513 0.048641
vt 0.061547 0.049023
vt 0.058245 0.048101
vt 0.381758 0.013919
vt 0.170092 0.534431
vt 0.171308 0.495803
vt 0.171308 0.536154
vt 0.044584 0.013919
vt 0.331810 0.401514
vt 0.346743 0.362396
vt 0.254691 0.486645
vt 0.168048 0.534102
vt 0.166375 0.535358
vt 0.451799 0.190367
vt 0.452289 0.296043
vt 0.449879 0.296252
vt 0.443611 0.190867
vt 0.615743 0.198477
vt 0.614370 0.078602
vt 0.619066 0.075357
vt 0.621885 0.194085
vt 0.620472 0.014896
vt 0.621885 0.013919
vt 0.472758 0.019023
vt 0.461709 0.021444
vt 0.434553 0.189376
vt 0.447142 0.295689
vt 0.444830 0.294895
vt 0.427021 0.186553
vt 0.448285 0.019330
vt 0.381758 0.206771
vt 0.399108 0.095523
vt 0.401500 0.095986
vt 0.390010 0.208544
vt 0.440349 0.013919
vt 0.542384 0.400229
vt 0.540693 0.291422
vt 0.542195 0.292392
vt 0.547372 0.403452
vt 0.394569 0.381471
vt 0.405595 0.383922
vt 0.399152 0.207077
vt 0.419037 0.381927
vt 0.546125 0.576122
vt 0.552661 0.580545
vt 0.406568 0.203178
vt 0.427021 0.376656
vt 0.404262 0.095438
vt 0.406576 0.094442
vt 0.427021 0.013919
vt 0.452788 0.294816
vt 0.472758 0.375148
vt 0.552661 0.209039
vt 0.586287 0.392339
vt 0.592653 0.473812
vt 0.589713 0.473698
vt 0.578945 0.392054
vt 0.398955 0.619811
vt 0.390715 0.552781
vt 0.393461 0.553863
vt 0.404217 0.621885
vt 0.397096 0.503041
vt 0.398195 0.503474
vt 0.593673 0.265106
vt 0.579600 0.264560
vt 0.251752 0.399469
vt 0.247887 0.489278
vt 0.245146 0.491182
vt 0.246464 0.403139
vt 0.536658 0.209771
vt 0.529159 0.298471
vt 0.523470 0.298091
vt 0.525686 0.209039
vt 0.536658 0.354835
vt 0.013919 0.013919
vt 0.579466 0.263544
vt 0.578914 0.136843
vt 0.586252 0.136511
vt 0.593530 0.262908
vt 0.604994 0.014892
vt 0.596693 0.138470
vt 0.593530 0.137963
vt 0.598931 0.013919
vt 0.599277 0.219336
vt 0.598010 0.219133
vt 0.589615 0.055606
vt 0.592553 0.055474
vt 0.417521 0.582080
vt 0.417831 0.514187
vt 0.420490 0.516000
vt 0.422648 0.585576
vt 0.593530 0.013919
vt 0.604994 0.260190
vt 0.404217 0.480174
vt 0.593673 0.515656
vt 0.409907 0.533727
vt 0.404217 0.534146
vt 0.417521 0.480174
vt 0.578945 0.266717
vt 0.562431 0.362430
vt 0.556939 0.360993
vt 0.570698 0.264560
vt 0.406548 0.620467
vt 0.417521 0.619660
vt 0.251752 0.550109
vt 0.422648 0.480174
vt 0.573925 0.463672
vt 0.570006 0.462814
vt 0.578945 0.514899
vt 0.566632 0.462688
vt 0.570570 0.065756
vt 0.578914 0.013919
vt 0.573947 0.065414
vt 0.566654 0.066393
vt 0.343723 0.456698
vt 0.348616 0.430071
vt 0.348616 0.463187
vt 0.336720 0.430071
vt 0.343723 0.467559
vt 0.331810 0.436518
vt 0.343723 0.434066
vt 0.478177 0.336440
vt 0.478177 0.370993
vt 0.472758 0.342507
vt 0.483957 0.423296
vt 0.493254 0.535149
vt 0.493899 0.548549
vt 0.436535 0.493704
vt 0.481823 0.065868
vt 0.543225 0.013919
vt 0.552661 0.019076
vt 0.522827 0.107909
vt 0.013919 0.459442
vt 0.077924 0.471080
vt 0.122081 0.471872
vt 0.331810 0.027942
vt 0.284752 0.013919
vt 0.252130 0.051555
vt 0.472758 0.257268
vt 0.523470 0.209039
vt 0.522798 0.221332
vt 0.523470 0.336440
vt 0.124513 0.562821
vt 0.125939 0.495884
vt 0.136955 0.495803
vt 0.166375 0.562821
vt 0.236376 0.239323
vt 0.197797 0.215648
vt 0.188405 0.167468
vt 0.220998 0.156673
vt 0.224980 0.060217
vt 0.252130 0.013919
vt 0.252130 0.399469
vt 0.204237 0.286953
vt 0.124513 0.264563
vt 0.125212 0.256346
vt 0.084822 0.497477
vt 0.124513 0.499803
vt 0.535804 0.544495
vt 0.493899 0.449146
vt 0.513232 0.375148
vt 0.535804 0.380500
vt 0.472758 0.083968
vt 0.493899 0.375148
vt 0.427021 0.474432
vt 0.001411 0.943804
vt 0.893647 0.943804
vt 0.902770 0.963150
vt 0.014049 0.963155
vt 0.503399 0.755398
vt 0.505879 0.601686
vt 0.806218 0.601686
vt 0.803738 0.755398
vt 0.083034 0.577008
vt 0.382383 0.582783
vt 0.399940 0.835007
vt 0.086502 0.835007
vt 0.996451 0.291241
vt 0.642588 0.291240
vt 0.631563 0.152797
vt 0.985425 0.152798
vt 0.648635 0.563228
vt 0.652714 0.305351
vt 0.965272 0.305351
vt 0.946965 0.557391
vt 0.828289 0.874195
vt 0.828289 0.573799
vt 0.982123 0.571444
vt 0.982123 0.871839
vt 0.997073 0.007050
vt 0.984676 0.145890
vt 0.629260 0.145890
vt 0.641658 0.007050
vt 0.005372 0.880997
vt 0.967519 0.880997
vt 0.971890 0.896935
vt 0.008338 0.903734
vt 0.552661 0.361389
vt 0.552661 0.167813
vt 0.558165 0.166417
vt 0.564268 0.264736
vt 0.572502 0.262463
vt 0.562432 0.166779
vt 0.578914 0.262589
vt 0.564237 0.264560
vt 0.006332 0.968650
vt 0.018971 0.988000
vt 0.907692 0.987996
vt 0.898569 0.968650
vt 0.007505 0.915448
vt 0.010471 0.938185
vt 0.974024 0.931386
vt 0.969652 0.915448
vn -0.956300 0.003600 -0.292400
vn -0.564300 0.021000 -0.825300
vn -0.931400 0.001700 0.363900
vn -0.380300 0.002300 0.924900
vn 0.158200 0.013600 0.987300
vn 0.881000 0.022700 0.472600
vn 0.881400 0.010600 -0.472200
vn 0.620700 0.018100 -0.783800
vn -0.917200 0.120300 -0.379900
vn -0.382700 0.000400 -0.923900
vn -0.906600 0.192700 0.375500
vn -0.376500 0.179000 0.909000
vn 0.381300 0.085900 0.920500
vn 0.923300 -0.034600 0.382500
vn 0.918400 -0.109100 -0.380400
vn 0.381000 -0.094800 -0.919700
vn -0.919300 0.099800 -0.380800
vn -0.382500 -0.033500 -0.923400
vn -0.901000 0.221000 0.373200
vn -0.369300 0.261800 0.891700
vn 0.374600 0.203900 0.904500
vn 0.921300 0.074200 0.381600
vn 0.922600 -0.051800 -0.382200
vn 0.380900 -0.096100 -0.919600
vn -0.921900 -0.065100 -0.381900
vn -0.368000 -0.274300 -0.888400
vn -0.899700 0.227400 0.372700
vn -0.350800 0.399800 0.846800
vn 0.352300 0.390300 0.850600
vn 0.905300 0.199800 0.375000
vn 0.919700 -0.094500 -0.381000
vn 0.366800 -0.285200 -0.885500
vn 0.356900 -0.360800 -0.861600
vn 0.914500 0.142500 -0.378800
vn 0.786500 0.524800 0.325700
vn 0.305600 0.602000 0.737700
vn -0.345600 0.429500 0.834300
vn -0.922500 -0.055100 0.382100
vn -0.318600 -0.553800 -0.769300
vn -0.817100 -0.466700 -0.338400
vn 0.680200 -0.732700 -0.023400
vn 0.951800 -0.064700 -0.299900
vn 0.905500 -0.115200 -0.408500
vn 0.724400 -0.683800 0.088000
vn -0.559500 -0.519200 0.646000
vn 0.076800 -0.897200 0.434800
vn -0.611500 0.775600 0.157000
vn -0.611900 -0.580200 0.537500
vn -0.829400 0.174100 0.530800
vn -0.711100 0.701100 -0.052100
vn -0.063300 0.914800 -0.399000
vn -0.938300 0.081800 0.335900
vn 0.070900 -0.905700 0.417900
vn 0.625500 0.597500 -0.501700
vn 0.619700 0.590800 -0.516700
vn -0.018500 0.960800 -0.276800
vn -0.126000 0.819200 -0.559500
vn 0.475600 0.423700 -0.770900
vn 0.818600 -0.181100 -0.545100
vn 0.706400 -0.706700 0.038800
vn 0.150000 -0.771100 0.618800
vn -0.436800 -0.380600 0.815100
vn -0.675400 0.736600 0.033800
vn -0.772500 0.208300 0.599800
vn 0.193700 -0.976600 -0.093800
vn 0.031800 -0.096500 0.994800
vn 0.194900 -0.106700 0.975000
vn -0.046200 -0.994500 -0.094300
vn 0.951800 0.069200 0.298800
vn 0.061900 0.911900 -0.405800
vn 0.102400 0.840300 -0.532300
vn 0.000000 0.000000 1.000000
vn 0.100200 0.990500 0.093700
vn 0.022300 0.092600 -0.995500
vn -0.140200 0.103600 -0.984700
vn -0.140500 0.985600 0.094300
vn -0.966900 -0.045200 -0.250900
vn -0.367300 0.925700 0.089800
vn -0.110000 0.101700 -0.988700
vn 0.183800 -0.106100 0.977200
vn 0.422500 -0.902100 -0.087700
vn -0.124500 -0.790800 0.599200
vn 0.575900 0.817500 -0.005900
vn -0.077000 -0.887900 0.453600
vn 0.865600 0.159800 0.474600
vn -0.904600 -0.124900 -0.407700
vn 0.600900 0.762300 0.240600
vn -0.782200 0.551100 0.290400
vn 0.575800 0.618600 0.534600
vn 0.756300 -0.531400 -0.381500
vn -0.562900 -0.580400 -0.588400
vn -0.487200 -0.325300 0.810500
vn 0.504500 0.445900 -0.739400
vn -0.848200 0.405400 -0.341000
vn 0.865500 -0.284800 0.412100
vn 0.925700 0.149700 -0.347300
vn 0.552900 0.176600 -0.814300
vn 0.628300 0.110000 0.770100
vn 0.439800 0.130100 0.888600
vn -0.094900 0.206300 0.973900
vn -0.909600 0.187500 -0.370700
vn -0.935600 0.115900 -0.333500
vn -0.822200 0.093300 -0.561500
vn -0.684400 0.367100 -0.629900
vn -0.886700 0.394800 -0.240600
vn -0.822600 0.453400 -0.343200
vn 0.032100 0.456100 0.889400
vn 0.498300 0.260500 0.826900
vn 0.306800 0.514600 0.800700
vn 0.339700 0.357700 -0.869900
vn 0.942100 0.261600 -0.209600
vn 0.056400 0.023400 0.998100
vn 0.247000 -0.965600 0.081200
vn -0.048300 -0.897800 -0.437800
vn -0.173900 -0.652600 0.737400
vn 0.048300 0.897800 0.437800
vn -0.247000 0.965600 -0.081200
vn 0.173900 0.652600 -0.737400
vn 0.158400 0.044200 0.986400
vn -0.815500 0.577500 0.039100
vn -0.601200 -0.756500 -0.257600
vn -0.803600 0.564300 0.189100
vn 0.797900 -0.559000 -0.225400
vn 0.815100 -0.576500 -0.056900
vn -0.581900 -0.812700 -0.030400
vn -0.056400 -0.023400 -0.998100
vn -0.158400 -0.044200 -0.986400
usemtl None
s off
f 112/1/1 16/2/1 17/3/1 113/4/1
f 113/5/2 17/6/2 10/7/2 114/8/2
f 111/9/3 15/10/3 16/2/3 112/1/3
f 110/11/4 14/12/4 15/10/4 111/9/4
f 109/13/5 13/14/5 14/15/5 110/16/5
f 108/17/6 12/18/6 13/14/6 109/13/6
f 107/19/7 11/20/7 12/18/7 108/17/7
f 114/8/8 10/7/8 11/21/8 107/22/8
f 16/2/9 24/23/9 25/24/9 17/3/9
f 17/6/10 25/25/10 18/26/10 10/7/10
f 15/10/11 23/27/11 24/23/11 16/2/11
f 14/12/12 22/28/12 23/27/12 15/10/12
f 13/14/13 21/29/13 22/30/13 14/15/13
f 12/18/14 20/31/14 21/29/14 13/14/14
f 11/20/15 19/32/15 20/31/15 12/18/15
f 10/7/16 18/26/16 19/33/16 11/21/16
f 24/23/17 32/34/17 33/35/17 25/24/17
f 25/25/18 33/36/18 26/37/18 18/26/18
f 23/27/19 31/38/19 32/34/19 24/23/19
f 22/28/20 30/39/20 31/38/20 23/27/20
f 21/29/21 29/40/21 30/41/21 22/30/21
f 20/31/22 28/42/22 29/40/22 21/29/22
f 19/32/23 27/43/23 28/42/23 20/31/23
f 18/26/24 26/37/24 27/44/24 19/33/24
f 32/34/25 40/45/25 41/46/25 33/35/25
f 33/36/26 41/47/26 34/48/26 26/37/26
f 31/38/27 39/49/27 40/45/27 32/34/27
f 30/50/28 38/51/28 39/52/28 31/53/28
f 29/54/29 37/55/29 38/51/29 30/50/29
f 28/42/30 36/56/30 37/57/30 29/40/30
f 27/43/31 35/58/31 36/56/31 28/42/31
f 26/37/32 34/48/32 35/59/32 27/44/32
f 34/60/33 2/61/33 35/62/33
f 35/58/34 2/63/34 36/56/34
f 36/64/35 2/65/35 37/55/35
f 37/55/36 2/65/36 38/51/36
f 38/51/37 2/65/37 39/52/37
f 39/49/38 2/66/38 40/45/38
f 41/67/39 2/61/39 34/60/39
f 40/68/40 2/61/40 41/67/40
f 54/69/41 64/70/41 63/71/41 55/72/41
f 47/73/42 53/74/42 54/75/42 48/76/42
f 53/74/43 65/77/43 64/78/43 54/75/43
f 48/79/44 54/69/44 55/72/44 49/80/44
f 56/81/45 62/82/45 60/83/45 57/84/45
f 49/80/46 55/72/46 56/81/46 50/85/46
f 58/86/47 59/87/47 61/88/47 43/89/47
f 50/85/48 56/81/48 57/84/48 51/90/48
f 57/91/49 60/92/49 59/93/49 58/94/49
f 52/95/50 58/86/50 43/89/50 44/96/50
f 44/96/51 43/89/51 42/97/51 46/98/51
f 51/99/52 57/91/52 58/94/52 52/100/52
f 55/72/53 63/71/53 62/82/53 56/81/53
f 46/98/54 42/97/54 53/101/54 47/102/54
f 42/97/55 66/103/55 65/104/55 53/101/55
f 43/89/56 61/88/56 66/103/56 42/97/56
f 61/88/57 45/105/57 66/103/57
f 66/103/58 45/105/58 65/104/58
f 65/106/59 45/107/59 64/70/59
f 64/70/60 45/107/60 63/71/60
f 63/71/61 45/107/61 62/82/61
f 62/82/62 45/107/62 60/83/62
f 59/87/63 45/105/63 61/88/63
f 60/92/64 45/108/64 59/93/64
f 77/109/65 80/110/65 79/111/65 78/112/65
f 75/113/66 78/114/66 68/115/66 69/116/66
f 78/114/67 79/117/67 81/118/67 68/115/67
f 73/119/68 77/109/68 78/112/68 75/120/68
f 84/121/69 76/122/69 89/123/69 86/124/69
f 72/125/70 74/126/70 76/127/70 84/128/70
f 76/127/71 74/126/71 91/129/71
f 196/130/72 198/130/72 96/130/72
f 69/131/73 68/132/73 67/133/73 71/134/73
f 71/135/74 67/136/74 77/137/74 73/138/74
f 67/136/75 82/139/75 80/140/75 77/137/75
f 68/132/76 81/141/76 82/142/76 67/133/76
f 88/143/77 90/144/77 74/145/77 72/146/77
f 81/141/78 70/147/78 82/142/78
f 82/139/79 70/148/79 80/140/79
f 79/117/80 70/149/80 81/118/80
f 80/110/81 70/150/81 79/111/81
f 90/151/82 89/152/82 91/153/82
f 92/154/83 93/155/83 94/156/83 87/157/83
f 86/158/84 89/152/84 90/151/84 88/159/84
f 89/123/85 76/122/85 91/160/85
f 96/130/72 197/130/72 199/130/72 97/130/72
f 200/130/72 97/130/72 195/130/72
f 74/145/86 90/144/86 91/161/86
f 196/130/72 96/130/72 97/130/72 200/130/72
f 97/130/72 199/130/72 195/130/72
f 93/155/87 98/162/87 101/163/87 94/156/87
f 198/130/72 197/130/72 96/130/72
f 101/163/88 85/164/88 99/165/88
f 98/162/89 85/164/89 101/163/89
f 100/166/90 85/167/90 98/168/90
f 99/169/91 85/167/91 100/166/91
f 105/170/92 103/171/92 106/172/92
f 102/173/93 103/174/93 104/175/93
f 106/176/94 103/174/94 102/173/94
f 104/177/95 103/178/95 105/179/95
f 122/180/96 114/181/96 107/182/96 115/183/96
f 115/184/97 107/185/97 108/186/97 116/187/97
f 116/188/98 108/17/98 109/13/98 117/189/98
f 117/189/99 109/13/99 110/16/99 118/190/99
f 118/191/100 110/11/100 111/9/100 119/192/100
f 119/192/101 111/9/101 112/1/101 120/193/101
f 121/194/102 113/195/102 114/196/102 122/197/102
f 120/198/103 112/199/103 113/200/103 121/201/103
f 8/202/104 120/203/104 121/204/104 9/205/104
f 9/205/105 121/204/105 122/206/105 1/207/105
f 7/208/106 119/209/106 120/203/106 8/202/106
f 6/210/107 118/211/107 119/209/107 7/208/107
f 5/212/108 117/189/108 118/190/108 6/213/108
f 4/214/109 116/215/109 117/216/109 5/217/109
f 3/218/110 115/184/110 116/187/110 4/108/110
f 1/219/111 122/180/111 115/183/111 3/220/111
f 55/130/72 56/130/72 184/130/72 183/130/72
f 96/221/112 126/222/112 125/223/112 97/224/112
f 127/225/113 129/226/113 130/227/113 128/228/113
f 134/229/114 132/230/114 131/231/114 133/232/114
f 135/233/115 137/234/115 138/235/115 136/236/115
f 141/237/116 139/238/116 142/239/116 140/240/116
f 144/130/72 146/130/72 150/130/72 148/130/72
f 129/130/72 127/130/72 143/130/72 145/130/72
f 130/130/72 129/130/72 145/130/72 146/130/72
f 127/130/72 128/130/72 144/130/72 143/130/72
f 128/130/72 130/130/72 146/130/72 144/130/72
f 150/130/72 149/130/72 153/130/72 154/130/72
f 145/130/72 143/130/72 147/130/72 149/130/72
f 146/130/72 145/130/72 149/130/72 150/130/72
f 143/130/72 144/130/72 148/130/72 147/130/72
f 152/130/72 154/130/72 158/130/72 156/130/72
f 147/130/72 148/130/72 152/130/72 151/130/72
f 148/130/72 150/130/72 154/130/72 152/130/72
f 149/130/72 147/130/72 151/130/72 153/130/72
f 157/130/72 155/130/72 159/130/72 161/130/72
f 153/130/72 151/130/72 155/130/72 157/130/72
f 154/130/72 153/130/72 157/130/72 158/130/72
f 151/130/72 152/130/72 156/130/72 155/130/72
f 162/130/72 161/130/72 165/130/72 166/130/72
f 158/130/72 157/130/72 161/130/72 162/130/72
f 155/130/72 156/130/72 160/130/72 159/130/72
f 156/130/72 158/130/72 162/130/72 160/130/72
f 164/130/72 166/130/72 170/130/72 168/130/72
f 159/130/72 160/130/72 164/130/72 163/130/72
f 160/130/72 162/130/72 166/130/72 164/130/72
f 161/130/72 159/130/72 163/130/72 165/130/72
f 170/130/72 169/130/72 173/130/72 174/130/72
f 165/130/72 163/130/72 167/130/72 169/130/72
f 166/130/72 165/130/72 169/130/72 170/130/72
f 163/130/72 164/130/72 168/130/72 167/130/72
f 171/130/72 172/130/72 176/130/72 175/130/72
f 167/130/72 168/130/72 172/130/72 171/130/72
f 168/130/72 170/130/72 174/130/72 172/130/72
f 169/130/72 167/130/72 171/130/72 173/130/72
f 175/241/117 176/242/117 178/243/117 177/244/117
f 172/130/72 174/130/72 178/130/72 176/130/72
f 173/130/72 171/130/72 175/130/72 177/130/72
f 174/130/72 173/130/72 177/130/72 178/130/72
f 179/245/118 180/246/118 182/247/118 181/248/118
f 138/130/72 137/130/72 181/130/72 182/130/72
f 135/130/72 136/130/72 180/130/72 179/130/72
f 136/130/72 138/130/72 182/130/72 180/130/72
f 137/130/72 135/130/72 179/130/72 181/130/72
f 186/130/72 185/130/72 189/130/72 190/130/72
f 123/130/72 55/130/72 183/130/72 185/130/72
f 56/130/72 124/130/72 186/130/72 184/130/72
f 124/130/72 123/130/72 185/130/72 186/130/72
f 190/130/72 189/130/72 193/130/72 194/130/72
f 183/130/72 184/130/72 188/130/72 187/130/72
f 184/130/72 186/130/72 190/130/72 188/130/72
f 185/130/72 183/130/72 187/130/72 189/130/72
f 192/249/119 194/250/119 193/251/119 191/252/119
f 187/130/72 188/130/72 192/130/72 191/130/72
f 188/130/72 190/130/72 194/130/72 192/130/72
f 189/130/72 187/130/72 191/130/72 193/130/72
f 94/156/120 101/163/120 99/165/120 197/253/120 198/253/120
f 197/254/121 99/169/121 100/166/121 199/255/121
f 87/157/122 94/156/122 198/253/122 196/253/122 83/256/122
f 95/257/123 200/255/123 195/255/123 93/258/123 92/259/123
f 199/255/124 100/166/124 98/168/124 93/258/124 195/255/124
f 83/260/125 196/254/125 200/255/125 95/257/125
f 201/261/126 202/262/126 203/263/126 204/264/126
f 206/265/127 205/266/127 207/267/127 208/268/127
